<svg width="132" height="132" viewBox="0 0 132 132" fill="none" xmlns="http://www.w3.org/2000/svg">
<path d="M125.319 65.5664C125.318 76.372 122.379 86.974 116.817 96.2379C111.254 105.502 103.278 113.079 93.7409 118.159C84.2039 123.239 73.4651 125.63 62.6737 125.077C51.8823 124.524 41.4444 121.047 32.4768 115.018L6 125.858L16.0944 98.5819C10.9466 90.837 7.68274 81.9949 6.56402 72.7627C5.4453 63.5306 6.50273 54.1648 9.65172 45.4145C12.8007 36.6643 17.9538 28.7724 24.6989 22.3702C31.444 15.9681 39.5938 11.2333 48.4963 8.54478C57.3988 5.85622 66.807 5.28847 75.9683 6.88693C85.1295 8.48539 93.7895 12.2057 101.256 17.7503C108.722 23.2948 114.786 30.5097 118.965 38.8178C123.143 47.1259 125.319 56.2966 125.319 65.5962V65.5664Z" stroke="white" stroke-width="11.9319" stroke-linecap="round" stroke-linejoin="round"/>
</svg>
