<svg xmlns="http://www.w3.org/2000/svg" viewBox="0 0 1010 126.38"><defs><style>.cls-1{fill:red;}</style></defs><title>Risorsa 3</title><g id="Livello_2" data-name="Livello 2"><g id="Livello_1-2" data-name="Livello 1"><path class="cls-1" d="M1009.94,118.64c-18.32,2.13-36.6,5-55,6.22-23.36,1.62-46.83,1.29-70.26,1.5-20,.19-39.9-1.2-59.71-2.91-26.77-2.31-53.43-5.89-80-9.87-42.7-6.4-85.1-14.5-127.14-24-53.32-12.07-106.6-24.31-160.26-34.82C396,42.67,334,33.43,271,34.71,216,35.83,162.9,47.62,110.61,63.62a827.06,827.06,0,0,0-102,38.25c-2.33,1.07-4.85,1.71-7.29,2.55C1.29,80.67.3,23.74,0,0,91.65.15,186.35,0,278,0c244.68,0,487.32.14,732,0C1009.63,28.49,1009.94,90.15,1009.94,118.64Z"/></g></g></svg>