<svg width="28" height="25" viewBox="0 0 28 25" fill="none" xmlns="http://www.w3.org/2000/svg">
<path d="M19.4663 0.950247C18.4483 0.951948 17.4408 1.151 16.5024 1.53582C15.564 1.92064 14.7135 2.48356 14.0001 3.19185C13.2872 2.48426 12.4374 1.92175 11.4998 1.53696C10.5623 1.15216 9.55578 0.952736 8.53862 0.950247C4.3024 0.934956 0.820519 4.30075 0.800194 8.43225C0.78813 10.3457 1.52693 12.1912 2.86517 13.5905L2.8733 13.599L13.1517 23.7061C13.2625 23.8151 13.3944 23.9017 13.5398 23.9607C13.6851 24.0198 13.8409 24.0502 13.9984 24.0502C14.1558 24.0502 14.3117 24.0198 14.457 23.9607C14.6023 23.9017 14.7342 23.8151 14.845 23.7061L24.7112 14.0017L25.2088 13.5124C26.5123 12.1102 27.2234 10.2789 27.1995 8.38638C27.1542 4.2747 23.6798 0.937788 19.4663 0.950247Z" fill="white"/>
</svg>
