<svg width="390" height="712" viewBox="0 0 390 712" fill="none" xmlns="http://www.w3.org/2000/svg">
<path d="M-72.1891 102.652C-28.4015 102.652 -9.17801 157.855 18.3822 157.855C42.9988 157.855 52.0569 131.3 57.1701 114.522C62.3794 97.4255 70.2482 81.2167 80.8681 66.8492C100.87 39.7673 136.785 8.27686 195.702 8.27686C231.328 8.27686 271.214 19.9852 301.42 53.9293C342.973 100.614 337.724 124 366.509 124C395.294 124 426.843 85.0174 465.032 85.0174V716H-74.6433L-72.1891 102.652Z" fill="url(#paint0_linear_539_693)"/>
<path opacity="0.1" d="M107.573 188.209C101.667 175.484 98.6174 161.622 98.6376 147.594C98.6376 104.287 127.163 67.6401 166.451 55.4214" stroke="white" stroke-width="24.9739" stroke-linecap="round" stroke-linejoin="round"/>
<path opacity="0.1" d="M289.462 168.186C280.027 211.594 241.364 244.107 195.148 244.107C175.957 244.144 157.194 238.432 141.278 227.707" stroke="white" stroke-width="24.9739" stroke-linecap="round" stroke-linejoin="round"/>
<path opacity="0.1" d="M210.881 52.3594C230.171 55.5563 248.037 64.5309 262.118 78.0972C276.198 91.6634 285.831 109.183 289.744 128.34" stroke="white" stroke-width="24.9739" stroke-linecap="round" stroke-linejoin="round"/>
<path d="M196.457 209.321C229.971 209.321 257.139 182.153 257.139 148.639C257.139 115.125 229.971 87.957 196.457 87.957C162.943 87.957 135.775 115.125 135.775 148.639C135.775 182.153 162.943 209.321 196.457 209.321Z" fill="#2323A7"/>
<path d="M183.798 170.231C180.74 167.472 178.797 163.688 178.337 159.594H188.266C188.702 161.407 189.755 163.011 191.244 164.131C192.706 165.223 194.573 165.767 196.845 165.764C199.444 165.764 201.465 165.09 202.908 163.743C203.616 163.09 204.176 162.294 204.549 161.407C204.922 160.519 205.101 159.562 205.073 158.6C205.073 156.38 204.302 154.643 202.76 153.388C201.219 152.133 199.267 151.507 196.905 151.51H192.438V144.064H196.979C198.868 144.142 200.725 143.552 202.224 142.399C203.599 141.289 204.285 139.717 204.282 137.682C204.317 136.763 204.148 135.847 203.787 135.001C203.425 134.154 202.88 133.399 202.191 132.789C200.795 131.556 198.962 130.939 196.692 130.939C194.534 130.939 192.797 131.483 191.48 132.572C190.145 133.721 189.255 135.302 188.964 137.039H179.331C179.851 133.197 181.642 129.64 184.418 126.934C187.193 124.215 191.306 122.855 196.757 122.855C200.725 122.855 204.01 123.576 206.613 125.019C209.215 126.462 211.094 128.294 212.25 130.514C213.386 132.606 213.992 134.945 214.017 137.326C214.017 139.694 213.46 141.656 212.347 143.213C211.415 144.6 210.21 145.782 208.805 146.687C207.551 147.445 206.756 147.824 206.428 147.824V148.25C207.477 148.604 208.496 149.042 209.475 149.559C210.517 150.104 211.629 151.203 212.81 152.856C213.991 154.509 214.581 156.732 214.581 159.525C214.597 162.107 213.937 164.649 212.666 166.897C211.291 169.261 209.243 171.163 206.784 172.359C204.132 173.734 200.845 174.42 196.924 174.417C191.247 174.417 186.872 173.022 183.798 170.231Z" fill="white"/>
<path d="M107.573 188.207C100.314 172.521 97.3948 155.175 99.1201 137.978C100.845 120.78 107.152 104.36 117.382 90.4292" stroke="#26B5A0" stroke-width="24.9739" stroke-miterlimit="10" stroke-linecap="round"/>
<path d="M289.462 168.186C280.027 211.594 241.364 244.107 195.148 244.107" stroke="#BDB4FF" stroke-width="24.9739" stroke-miterlimit="10" stroke-linecap="round"/>
<path d="M210.881 52.3594C222.892 54.3278 234.417 58.5657 244.841 64.8463" stroke="#FFB985" stroke-width="24.9739" stroke-miterlimit="10" stroke-linecap="round"/>
<defs>
<linearGradient id="paint0_linear_539_693" x1="195" y1="305.5" x2="195" y2="716" gradientUnits="userSpaceOnUse">
<stop stop-color="#4747F9"/>
<stop offset="1" stop-color="#2323A7"/>
</linearGradient>
</defs>
</svg>
